<svg xmlns="http://www.w3.org/2000/svg" width="63.292" height="48.428" viewBox="0 0 63.292 48.428">
  <path id="Caminho_265" data-name="Caminho 265" d="M61.136,97.286l-3.754-1.877a.064.064,0,0,1-.035-.057V93.465a6.847,6.847,0,0,0,2.905-4.708,7.84,7.84,0,0,0-2.084-10.211,3.979,3.979,0,0,0,.169-1.148,4.919,4.919,0,0,0-9.782,0,3.977,3.977,0,0,0,.169,1.148A7.9,7.9,0,0,0,46.151,81.9c-.23-2.258-.469-4.928-.7-8.038a15.346,15.346,0,0,0-4.267-10.021,13.261,13.261,0,0,0-9.539-3.72,13.26,13.26,0,0,0-9.539,3.72,15.346,15.346,0,0,0-4.267,10.021c-.08,1.089-.162,2.122-.244,3.1H8.855a5.889,5.889,0,0,0-5.882,5.882V82.9a4.915,4.915,0,0,0,.516,2.187l.475.949v1.514A7.232,7.232,0,0,0,6.936,93.4V94.74a.388.388,0,0,1-.28.372L2.828,96.205A3.916,3.916,0,0,0,0,99.955v7.667a.927.927,0,0,0,1.854,0V99.955a2.054,2.054,0,0,1,1.484-1.967l3.828-1.094a2.2,2.2,0,0,0,.394-.156l2.35,2.35v8.534a.927.927,0,0,0,1.854,0V99.087l2.366-2.366a5.076,5.076,0,0,0,.862.311l.94.268a4.892,4.892,0,0,0-2.059,3.984v6.336a.927.927,0,0,0,1.854,0v-6.336a3.038,3.038,0,0,1,1.81-2.778l5.3-2.341a9.848,9.848,0,0,0,17.618,0l5.3,2.34a3.038,3.038,0,0,1,1.81,2.778v6.336a.927.927,0,0,0,1.854,0v-6.336a4.89,4.89,0,0,0-1.171-3.172l1.435-.717L50.76,98.42a3.9,3.9,0,0,0,5.373,0L57.21,97.4l3.1,1.548a2.034,2.034,0,0,1,1.131,1.83v6.847a.927.927,0,1,0,1.854,0v-6.847A3.879,3.879,0,0,0,61.136,97.286ZM50.41,77.4a3.085,3.085,0,0,1,6.073,0c0,.059,0,.117-.009.175a7.854,7.854,0,0,0-6.054,0C50.415,77.515,50.41,77.457,50.41,77.4Zm3.037,1.423a6.016,6.016,0,0,1,6.009,6.009,5.948,5.948,0,0,1-.3,1.875c-2.633-2.674-7.264-3.723-7.487-3.772a.927.927,0,0,0-1.127.905,2.267,2.267,0,0,1-.719,1.326.927.927,0,0,0,1.311,1.311,4.486,4.486,0,0,0,1.007-1.5c1.56.463,4.8,1.634,6.251,3.688a5.016,5.016,0,0,1-9.928-.317.928.928,0,0,0-.132-.385,6,6,0,0,1,5.119-9.144ZM23.408,65.162a11.445,11.445,0,0,1,8.238-3.186,11.445,11.445,0,0,1,8.238,3.186A13.529,13.529,0,0,1,43.6,74c.73,9.888,1.561,15.4,1.884,17.314a.046.046,0,0,1-.023.054,20.487,20.487,0,0,1-5.78,2.434l-1.529-.675a1.055,1.055,0,0,1-.629-.965V88.973a10.837,10.837,0,0,0,4.955-9.1V78.137a3.867,3.867,0,0,0-1.318-2.924c-1.863-1.62-6.079-4.447-13.39-5.178a.927.927,0,1,0-.184,1.845c6.8.68,10.661,3.257,12.358,4.733a2.013,2.013,0,0,1,.681,1.525v1.738a8.982,8.982,0,1,1-17.964,0V79.1a1.01,1.01,0,0,1,.528-.873,7.339,7.339,0,0,0,3.388-4,.927.927,0,1,0-1.759-.586,5.514,5.514,0,0,1-2.554,2.983,2.882,2.882,0,0,0-1.457,2.48v.776a10.836,10.836,0,0,0,4.955,9.1V92.16a1.055,1.055,0,0,1-.629.965l-1.529.675a20.482,20.482,0,0,1-5.78-2.434.046.046,0,0,1-.022-.054C18.128,89.4,18.958,83.887,19.689,74A13.529,13.529,0,0,1,23.408,65.162ZM5.818,87.554V85.821a.927.927,0,0,0-.1-.415l-.572-1.145A3.053,3.053,0,0,1,4.827,82.9v-.055a4.032,4.032,0,0,1,4.028-4.028h7.991V82.67a4.047,4.047,0,0,1-.425,1.8l-.468.936a.927.927,0,0,0-.1.415V87.8a5.019,5.019,0,0,1-5.173,5.016A5.187,5.187,0,0,1,5.818,87.554Zm4.808,7.119c.071,0,.142,0,.213,0a6.886,6.886,0,0,0,2.043-.309v.372a2.548,2.548,0,0,0,.057.55l-2.1,2.1L8.724,95.28a2.219,2.219,0,0,0,.067-.54v-.391A6.5,6.5,0,0,0,10.626,94.673Zm4.11.067V93.462a6.847,6.847,0,0,0,1.41-1.3,1.9,1.9,0,0,0,.672.757,20.473,20.473,0,0,0,4.208,2.017l-2.6,1.147L15.5,95.25C14.736,95.031,14.736,94.946,14.736,94.74Zm16.91,5.018a7.983,7.983,0,0,1-7.111-4.341l1.35-.6a2.91,2.91,0,0,0,1.734-2.661V89.936a10.833,10.833,0,0,0,8.055,0V92.16a2.91,2.91,0,0,0,1.734,2.661l1.349.6A7.964,7.964,0,0,1,31.646,99.758ZM42.265,94.94a20.476,20.476,0,0,0,4.208-2.017A1.906,1.906,0,0,0,47.316,91l-.022-.131a6.858,6.858,0,0,0,2.252,2.593v1.887a.063.063,0,0,1-.035.057l-2.9,1.452c-.034-.016-.068-.034-.1-.05Zm9.772,2.136-.862-.819a1.918,1.918,0,0,0,.225-.9v-.987a6.9,6.9,0,0,0,4.091,0v.986a1.918,1.918,0,0,0,.225.905l-.862.819A2.044,2.044,0,0,1,52.037,97.076Z" transform="translate(0 -60.121)" fill="#3c3c3b"/>
</svg>
