<svg xmlns="http://www.w3.org/2000/svg" width="150.201" height="61.814" viewBox="0 0 150.201 61.814">
  <g id="Grupo_32" data-name="Grupo 32" transform="translate(-33 -1377.386)">
    <path id="Caminho_246" data-name="Caminho 246" d="M113.445,1538.514q-2.859,0-2.858-2.151v-8.478h0V1517.6h0v-3.484l-.455-.321h-3.767a6.7,6.7,0,0,0-4.027.915,3.848,3.848,0,0,0-1.169,3.2v.713h.043v8.484h-.043V1537.6q0,6.134,7.989,6.133,3.9,0,8.574-.458a4.641,4.641,0,0,0,.26-1.831,7,7,0,0,0-.779-2.929Z" transform="translate(-61.825 -123.716)" fill="#fff"/>
    <path id="Caminho_247" data-name="Caminho 247" d="M35.832,1472.912H47.874v-.044l2.242.044h5.571a21.008,21.008,0,0,0,.026-7.728H33.338A18.746,18.746,0,0,0,33,1468.97a18.185,18.185,0,0,0,.39,4.051l2.442-.037Z" transform="translate(0 -79.627)" fill="#fff"/>
    <path id="Caminho_248" data-name="Caminho 248" d="M352.1,1400.686v11.966a9.41,9.41,0,0,0,1.494,5.7,9.43,9.43,0,0,1-5.683,1.841q-3.151,0-4.319-1.323a5.939,5.939,0,0,1-1.169-4.027V1402.3a5.606,5.606,0,0,0-.649-3.078,2.634,2.634,0,0,0-2.338-.949,7.989,7.989,0,0,0-5.261,2.186v19.273a27.749,27.749,0,0,1-4.644.345,31.426,31.426,0,0,1-4.839-.345v-41.94l.455-.4h3.767q2.857,0,4.06,1.179t1.2,4v11.276A14.772,14.772,0,0,1,343,1390.56a8.359,8.359,0,0,1,6.755,2.762A11.017,11.017,0,0,1,352.1,1400.686Z" transform="translate(-264.543)" fill="#fff"/>
    <path id="Caminho_249" data-name="Caminho 249" d="M695.921,1533.193H678.709a6.978,6.978,0,0,0,1.559,4.286q1.364,1.525,4.806,1.525a23.878,23.878,0,0,0,8.184-1.784,8.621,8.621,0,0,1,2.663,5.12,23.6,23.6,0,0,1-12.731,3.279,17.772,17.772,0,0,1-6.95-1.237,10.221,10.221,0,0,1-4.482-3.423A18.727,18.727,0,0,1,668.9,1530.2a16.024,16.024,0,0,1,3.572-10.758q3.571-4.2,10.328-4.2t10.36,3.423a11.566,11.566,0,0,1,3.6,8.774A19.575,19.575,0,0,1,695.921,1533.193Zm-9.223-10.384a3.993,3.993,0,0,0-3.41-1.467,3.937,3.937,0,0,0-3.378,1.438,8.486,8.486,0,0,0-1.267,4.487H687.8v-.69A6.1,6.1,0,0,0,686.7,1522.809Z" transform="translate(-576.723 -125.029)" fill="#fff"/>
    <path id="Caminho_250" data-name="Caminho 250" d="M1374.6,1533.193h-17.212a6.979,6.979,0,0,0,1.559,4.286q1.364,1.525,4.807,1.525a23.876,23.876,0,0,0,8.184-1.784,8.619,8.619,0,0,1,2.663,5.12,23.6,23.6,0,0,1-12.73,3.279,17.773,17.773,0,0,1-6.95-1.237,10.223,10.223,0,0,1-4.482-3.423,18.726,18.726,0,0,1-2.858-10.759,16.024,16.024,0,0,1,3.573-10.758q3.571-4.2,10.327-4.2t10.36,3.423a11.566,11.566,0,0,1,3.6,8.774A19.575,19.575,0,0,1,1374.6,1533.193Zm-9.223-10.384a3.992,3.992,0,0,0-3.41-1.467,3.937,3.937,0,0,0-3.378,1.438,8.485,8.485,0,0,0-1.267,4.487h9.159v-.69A6.1,6.1,0,0,0,1365.374,1522.809Z" transform="translate(-1192.24 -125.029)" fill="#fff"/>
    <g id="Grupo_30" data-name="Grupo 30" transform="translate(125.417 1427.573)">
      <path id="Caminho_251" data-name="Caminho 251" d="M1028.652,1919.567a1.711,1.711,0,0,1,1.519.824,4.164,4.164,0,0,1,.537,2.288,3.174,3.174,0,0,1-.744,2.257,2.357,2.357,0,0,1-1.781.793,6.144,6.144,0,0,1-2.111-.391v-8.589l.073-.073h.3a.392.392,0,0,1,.354.134.855.855,0,0,1,.085.439v3.1A2.434,2.434,0,0,1,1028.652,1919.567Zm1.226,3.05a3.166,3.166,0,0,0-.384-1.751,1.088,1.088,0,0,0-.9-.567,1.925,1.925,0,0,0-.958.25,2.415,2.415,0,0,0-.75.653v3.648a3.424,3.424,0,0,0,1.293.232,1.469,1.469,0,0,0,1.208-.64A2.962,2.962,0,0,0,1029.877,1922.618Z" transform="translate(-1026.071 -1916.676)" fill="#fff"/>
      <path id="Caminho_252" data-name="Caminho 252" d="M1092.335,1948.013l-1.684,5.722a6.622,6.622,0,0,1-.988,2.227,1.886,1.886,0,0,1-1.549.641,2.851,2.851,0,0,1-.952-.159v-.061a.839.839,0,0,1,.2-.537,2.143,2.143,0,0,0,.769.122,1.2,1.2,0,0,0,1.013-.445,4.582,4.582,0,0,0,.635-1.409l.036-.122a.868.868,0,0,1-.457-.141.915.915,0,0,1-.262-.445l-1.732-5.38a1.38,1.38,0,0,1,.488-.146q.329,0,.452.4l.988,3.111q.353,1.135.586,1.915a.113.113,0,0,0,.122.085l1.513-5.441a2.063,2.063,0,0,1,.4-.037,1.271,1.271,0,0,1,.4.061Z" transform="translate(-1081.477 -1944.975)" fill="#fff"/>
    </g>
    <g id="Grupo_31" data-name="Grupo 31" transform="translate(139.398 1425.556)">
      <path id="Caminho_253" data-name="Caminho 253" d="M1182.294,1934.753a3.384,3.384,0,0,1-2.029.8,3.3,3.3,0,0,1-3.157-3.206h6.971c0-.045.016-.229.016-.336a3.9,3.9,0,1,0-7.782,0,4.023,4.023,0,0,0,3.922,4.152,3.8,3.8,0,0,0,2.211-.674,1.678,1.678,0,0,1-.151-.741m-2.091-6.184a3.21,3.21,0,0,1,3.143,3.173h-6.255a3.187,3.187,0,0,1,3.112-3.173" transform="translate(-1176.312 -1924.875)" fill="#fff"/>
      <path id="Caminho_254" data-name="Caminho 254" d="M1275.492,1902.2c-1.8-.459-2.686-.687-2.686-1.725,0-.947.717-1.51,2.045-1.51a4.441,4.441,0,0,1,2.99,1.1l.777-1.4a6.173,6.173,0,0,0-3.676-1.221c-2.2,0-3.907,1.159-3.907,3.3,0,1.693,1.084,2.334,3.221,2.9,1.876.488,2.959.793,2.959,1.877,0,.914-.764,1.4-2.06,1.4a7.421,7.421,0,0,1-3.113-.8,2.169,2.169,0,0,1,.232.947,2.347,2.347,0,0,1-.163.8,7.475,7.475,0,0,0,2.983.595c2.152,0,3.968-.885,3.968-3.144,0-2-1.434-2.563-3.57-3.112" transform="translate(-1262.221 -1897.216)" fill="#fff"/>
      <rect id="Retângulo_23" data-name="Retângulo 23" width="1.676" height="11.227" transform="translate(25.239)" fill="#fff"/>
      <path id="Caminho_255" data-name="Caminho 255" d="M1368.324,1930.7c0-2.076-1.3-3.251-3.479-3.251a5.633,5.633,0,0,0-3.2,1.038l.518,1.068a4.488,4.488,0,0,1,2.534-.914,1.746,1.746,0,0,1,1.953,1.875v.551a6.017,6.017,0,0,0-2.106-.366c-1.984,0-3.372,1.021-3.372,2.518a2.553,2.553,0,0,0,2.7,2.5,3.747,3.747,0,0,0,2.8-1.237v1.172h1.655Zm-1.677,2.366a.838.838,0,0,1-.322.579,2.568,2.568,0,0,1-2,.839,1.464,1.464,0,0,1-1.571-1.4c0-.838.854-1.418,2.045-1.418a5.456,5.456,0,0,1,1.846.351Z" transform="translate(-1343.965 -1924.425)" fill="#fff"/>
      <path id="Caminho_256" data-name="Caminho 256" d="M1474.29,1931.594a4.041,4.041,0,0,1,4.149-4.151,3.978,3.978,0,0,1,4.075,4.074,5.213,5.213,0,0,1-.047.611h-6.391a2.441,2.441,0,0,0,2.41,2.351,2.26,2.26,0,0,0,2.089-1.221l1.435.412a3.85,3.85,0,0,1-3.585,2.046,4.032,4.032,0,0,1-4.135-4.122m6.562-.624a2.424,2.424,0,0,0-2.427-2.291,2.385,2.385,0,0,0-2.395,2.291Z" transform="translate(-1446.56 -1924.424)" fill="#fff"/>
      <path id="Caminho_257" data-name="Caminho 257" d="M1562.666,1934.6l.7-1.128a5.057,5.057,0,0,0,2.913,1.021c1.008,0,1.648-.4,1.648-1.113,0-.672-.641-.884-2.075-1.234-2-.5-2.792-.916-2.792-2.153,0-1.617,1.374-2.549,3.129-2.549a5.332,5.332,0,0,1,3.126,1.023l-.717,1.022a4.02,4.02,0,0,0-2.441-.853c-.854,0-1.526.335-1.526,1.114,0,.656.458.823,1.756,1.145,2.2.52,3.157.991,3.157,2.349,0,1.511-1.265,2.473-3.234,2.473a6.363,6.363,0,0,1-3.648-1.117" transform="translate(-1526.711 -1924.425)" fill="#fff"/>
      <path id="Caminho_258" data-name="Caminho 258" d="M1249.786,1986.745a1.444,1.444,0,1,1-1.444-1.444,1.444,1.444,0,0,1,1.444,1.444" transform="translate(-1240.329 -1976.898)" fill="#fff"/>
    </g>
    <path id="Caminho_259" data-name="Caminho 259" d="M1041.72,1537.969a23.519,23.519,0,0,1-1.732-3.562l-1.7-4.467a9.1,9.1,0,0,0-5.773-5.252,9.924,9.924,0,0,0,3.4-3.38l5.5-9.176-.407-.483q-3.667-.12-5.637-.121a6.08,6.08,0,0,0-5.7,3.32l-3.871,6.339a2.128,2.128,0,0,1-1.9,1.087h-1.222v-6.263h-9.914v25.821a31.665,31.665,0,0,0,5.025.362,29.137,29.137,0,0,0,4.889-.362V1529.7l2.241-.061a4.147,4.147,0,0,1,2.479.664,6.13,6.13,0,0,1,1.732,2.6l2.037,5.312a7.559,7.559,0,0,0,2,3.2,5.146,5.146,0,0,0,3.293.905,9.011,9.011,0,0,0,6.791-2.837A4.966,4.966,0,0,1,1041.72,1537.969Z" transform="translate(-888.58 -121.66)" fill="#fff"/>
    <path id="Caminho_260" data-name="Caminho 260" d="M1022.382,1520.117v-5.97q0-2.818-1.256-4t-4.244-1.179h-3.938l-.475.4v10.745Z" transform="translate(-888.318 -119.338)" fill="#fff"/>
  </g>
</svg>
