<svg xmlns="http://www.w3.org/2000/svg" width="161.435" height="66.437" viewBox="0 0 161.435 66.437">
  <g id="Grupo_3" data-name="Grupo 3" transform="translate(-129 -225.386)">
    <path id="Caminho_1" data-name="Caminho 1" d="M210.363,388.362q-3.073,0-3.072-2.312v-9.112h0V365.885h0v-3.744l-.489-.345h-4.049q-3.073,0-4.328.984a4.136,4.136,0,0,0-1.256,3.444v.766h.046v9.119h-.046v11.27q0,6.593,8.587,6.592,4.189,0,9.215-.492a4.988,4.988,0,0,0,.279-1.968,7.523,7.523,0,0,0-.838-3.148Z" transform="translate(-61.351 -122.766)" fill="#345d9d"/>
    <path id="Caminho_2" data-name="Caminho 2" d="M132.044,321.49h12.943v-.047l2.41.047h5.987a22.578,22.578,0,0,0,.028-8.306H129.364a20.15,20.15,0,0,0-.364,4.069,19.545,19.545,0,0,0,.419,4.354l2.625-.04Z" transform="translate(0 -79.016)" fill="#345d9d"/>
    <path id="Caminho_3" data-name="Caminho 3" d="M450.148,250.429V263.29a10.114,10.114,0,0,0,1.606,6.122,10.135,10.135,0,0,1-6.108,1.979q-3.387,0-4.642-1.423a6.384,6.384,0,0,1-1.257-4.328V252.16a6.024,6.024,0,0,0-.7-3.308,2.831,2.831,0,0,0-2.513-1.02,8.587,8.587,0,0,0-5.655,2.35V270.9a29.821,29.821,0,0,1-4.991.371,33.772,33.772,0,0,1-5.2-.371V225.818l.489-.432h4.049q3.071,0,4.363,1.267t1.291,4.3V243.07a15.877,15.877,0,0,1,9.494-3.525q4.747,0,7.26,2.968A11.84,11.84,0,0,1,450.148,250.429Z" transform="translate(-262.513)" fill="#345d9d"/>
    <path id="Caminho_4" data-name="Caminho 4" d="M793.942,382.536h-18.5a7.5,7.5,0,0,0,1.675,4.606q1.466,1.639,5.166,1.639a25.664,25.664,0,0,0,8.8-1.917,9.265,9.265,0,0,1,2.862,5.5,25.365,25.365,0,0,1-13.683,3.524,19.1,19.1,0,0,1-7.47-1.329,10.984,10.984,0,0,1-4.817-3.679q-3.073-4.513-3.072-11.563a17.223,17.223,0,0,1,3.839-11.563q3.839-4.513,11.1-4.514t11.135,3.679a12.431,12.431,0,0,1,3.874,9.43A21.041,21.041,0,0,1,793.942,382.536Zm-9.913-11.161a4.291,4.291,0,0,0-3.665-1.577,4.231,4.231,0,0,0-3.63,1.546,9.121,9.121,0,0,0-1.361,4.823h9.843v-.742A6.555,6.555,0,0,0,784.029,371.375Z" transform="translate(-572.297 -124.069)" fill="#345d9d"/>
    <path id="Caminho_5" data-name="Caminho 5" d="M1472.618,382.536h-18.5a7.5,7.5,0,0,0,1.675,4.606q1.466,1.639,5.166,1.639a25.661,25.661,0,0,0,8.8-1.917,9.264,9.264,0,0,1,2.862,5.5,25.364,25.364,0,0,1-13.683,3.524,19.1,19.1,0,0,1-7.47-1.329,10.986,10.986,0,0,1-4.817-3.679q-3.073-4.513-3.072-11.563a17.222,17.222,0,0,1,3.84-11.563q3.838-4.513,11.1-4.514t11.135,3.679a12.431,12.431,0,0,1,3.874,9.43A21.039,21.039,0,0,1,1472.618,382.536Zm-9.913-11.161a4.291,4.291,0,0,0-3.665-1.577,4.231,4.231,0,0,0-3.63,1.546,9.119,9.119,0,0,0-1.362,4.823h9.844v-.742A6.555,6.555,0,0,0,1462.7,371.375Z" transform="translate(-1183.091 -124.069)" fill="#345d9d"/>
    <g id="Grupo_1" data-name="Grupo 1" transform="translate(228.329 279.327)">
      <path id="Caminho_6" data-name="Caminho 6" d="M1124.845,767.784a1.839,1.839,0,0,1,1.632.885,4.478,4.478,0,0,1,.577,2.459,3.413,3.413,0,0,1-.8,2.426,2.535,2.535,0,0,1-1.915.852,6.605,6.605,0,0,1-2.269-.42v-9.231l.079-.079h.328a.42.42,0,0,1,.38.144.916.916,0,0,1,.092.472v3.331A2.616,2.616,0,0,1,1124.845,767.784Zm1.318,3.278a3.4,3.4,0,0,0-.413-1.882,1.17,1.17,0,0,0-.964-.61,2.07,2.07,0,0,0-1.029.269,2.6,2.6,0,0,0-.807.7v3.921a3.676,3.676,0,0,0,1.39.249,1.579,1.579,0,0,0,1.3-.689A3.183,3.183,0,0,0,1126.162,771.062Z" transform="translate(-1122.071 -764.676)" fill="#3c3c3b"/>
      <path id="Caminho_7" data-name="Caminho 7" d="M1188.722,796.023l-1.81,6.15a7.12,7.12,0,0,1-1.062,2.393,2.028,2.028,0,0,1-1.666.688,3.059,3.059,0,0,1-1.023-.171v-.065a.9.9,0,0,1,.21-.577,2.3,2.3,0,0,0,.826.131,1.287,1.287,0,0,0,1.089-.479,4.925,4.925,0,0,0,.682-1.515l.039-.131a.934.934,0,0,1-.492-.151.985.985,0,0,1-.282-.479l-1.862-5.783a1.484,1.484,0,0,1,.525-.157q.354,0,.485.433l1.062,3.344q.38,1.219.629,2.059a.121.121,0,0,0,.131.092l1.626-5.848a2.223,2.223,0,0,1,.432-.039,1.371,1.371,0,0,1,.433.065Z" transform="translate(-1177.052 -792.758)" fill="#3c3c3b"/>
    </g>
    <g id="Grupo_2" data-name="Grupo 2" transform="translate(243.356 277.159)">
      <path id="Caminho_8" data-name="Caminho 8" d="M1278.741,783.262a3.637,3.637,0,0,1-2.181.864,3.543,3.543,0,0,1-3.394-3.445h7.493c0-.048.017-.246.017-.361a4.187,4.187,0,1,0-8.364,0,4.325,4.325,0,0,0,4.215,4.463,4.082,4.082,0,0,0,2.376-.724,1.805,1.805,0,0,1-.162-.8m-2.248-6.647a3.45,3.45,0,0,1,3.378,3.41h-6.723a3.425,3.425,0,0,1,3.345-3.41" transform="translate(-1272.312 -772.646)" fill="#3c3c3b"/>
      <path id="Caminho_9" data-name="Caminho 9" d="M1371.826,750.561c-1.935-.493-2.887-.738-2.887-1.854,0-1.018.771-1.623,2.2-1.623a4.773,4.773,0,0,1,3.214,1.179l.835-1.508a6.635,6.635,0,0,0-3.951-1.312c-2.363,0-4.2,1.246-4.2,3.543,0,1.819,1.165,2.509,3.462,3.116,2.016.525,3.181.852,3.181,2.018,0,.983-.821,1.508-2.214,1.508a7.977,7.977,0,0,1-3.346-.864,2.331,2.331,0,0,1,.249,1.018,2.526,2.526,0,0,1-.175.863,8.031,8.031,0,0,0,3.206.639c2.313,0,4.264-.951,4.264-3.379,0-2.149-1.541-2.755-3.837-3.345" transform="translate(-1357.562 -745.199)" fill="#3c3c3b"/>
      <rect id="Retângulo_1" data-name="Retângulo 1" width="1.801" height="12.067" transform="translate(27.127)" fill="#3c3c3b"/>
      <path id="Caminho_10" data-name="Caminho 10" d="M1464.859,778.938c0-2.231-1.394-3.494-3.739-3.494a6.055,6.055,0,0,0-3.443,1.116l.557,1.148a4.824,4.824,0,0,1,2.723-.983,1.877,1.877,0,0,1,2.1,2.016v.592a6.463,6.463,0,0,0-2.264-.394c-2.132,0-3.624,1.1-3.624,2.706a2.744,2.744,0,0,0,2.9,2.691,4.027,4.027,0,0,0,3.006-1.33v1.26h1.779Zm-1.8,2.543a.9.9,0,0,1-.346.622,2.76,2.76,0,0,1-2.147.9,1.573,1.573,0,0,1-1.689-1.509c0-.9.918-1.525,2.2-1.525a5.867,5.867,0,0,1,1.984.377Z" transform="translate(-1438.678 -772.199)" fill="#3c3c3b"/>
      <path id="Caminho_11" data-name="Caminho 11" d="M1570.29,779.9a4.343,4.343,0,0,1,4.46-4.461,4.275,4.275,0,0,1,4.38,4.379,5.607,5.607,0,0,1-.05.656h-6.87A2.624,2.624,0,0,0,1574.8,783a2.43,2.43,0,0,0,2.246-1.312l1.542.443a4.138,4.138,0,0,1-3.853,2.2,4.333,4.333,0,0,1-4.444-4.431m7.052-.67a2.606,2.606,0,0,0-2.608-2.462,2.563,2.563,0,0,0-2.574,2.462Z" transform="translate(-1540.486 -772.198)" fill="#3c3c3b"/>
      <path id="Caminho_12" data-name="Caminho 12" d="M1658.666,783.135l.755-1.213a5.436,5.436,0,0,0,3.131,1.1c1.083,0,1.772-.425,1.772-1.2,0-.722-.688-.95-2.23-1.327-2.149-.542-3-.984-3-2.314,0-1.737,1.476-2.739,3.363-2.739a5.729,5.729,0,0,1,3.36,1.1l-.77,1.1a4.321,4.321,0,0,0-2.623-.917c-.918,0-1.64.36-1.64,1.2,0,.706.492.884,1.887,1.23,2.361.558,3.394,1.065,3.394,2.525,0,1.625-1.359,2.659-3.476,2.659a6.84,6.84,0,0,1-3.921-1.2" transform="translate(-1620.022 -772.199)" fill="#3c3c3b"/>
      <path id="Caminho_13" data-name="Caminho 13" d="M1346,834.853a1.552,1.552,0,1,1-1.552-1.552,1.552,1.552,0,0,1,1.552,1.552" transform="translate(-1335.838 -824.269)" fill="#345d9d"/>
    </g>
    <path id="Caminho_14" data-name="Caminho 14" d="M1139.887,387.946a25.28,25.28,0,0,1-1.861-3.828l-1.825-4.8a9.776,9.776,0,0,0-6.2-5.644,10.665,10.665,0,0,0,3.649-3.633l5.913-9.862-.438-.519q-3.941-.129-6.058-.13a6.535,6.535,0,0,0-6.131,3.568l-4.16,6.813a2.287,2.287,0,0,1-2.044,1.168h-1.314v-6.732h-10.656V392.1a34.03,34.03,0,0,0,5.4.389,31.313,31.313,0,0,0,5.255-.389V379.058l2.409-.065a4.457,4.457,0,0,1,2.664.714,6.587,6.587,0,0,1,1.861,2.79l2.19,5.71a8.122,8.122,0,0,0,2.153,3.438,5.53,5.53,0,0,0,3.54.973,9.685,9.685,0,0,0,7.3-3.049A5.341,5.341,0,0,1,1139.887,387.946Z" transform="translate(-881.761 -120.726)" fill="#345d9d"/>
    <path id="Caminho_15" data-name="Caminho 15" d="M1119.124,368.951v-6.416q0-3.029-1.35-4.3t-4.561-1.267h-4.233l-.511.432v11.549Z" transform="translate(-881.501 -118.422)" fill="#345d9d"/>
  </g>
</svg>
