<svg xmlns="http://www.w3.org/2000/svg" width="48.431" height="48.428" viewBox="0 0 48.431 48.428">
  <g id="Grupo_61" data-name="Grupo 61" transform="translate(-118.664 -243.57)">
    <g id="Grupo_60" data-name="Grupo 60" transform="translate(118.664 243.57)">
      <path id="Caminho_263" data-name="Caminho 263" d="M264.707,302.645a6.02,6.02,0,1,0-6.02,6.02,6.02,6.02,0,0,0,6.02-6.02Zm-10.614,0a4.594,4.594,0,1,1,4.594,4.594,4.594,4.594,0,0,1-4.594-4.594Zm0,0" transform="translate(-234.472 -289.422)" fill="#3c3c3b"/>
      <path id="Caminho_264" data-name="Caminho 264" d="M167.047,291.031,161.236,275.8a.714.714,0,0,0-.666-.459h-11c.067-.11.134-.216.2-.326C154,268,156.134,261.876,156.1,256.8a13.225,13.225,0,0,0-26.449,0c-.031,5.083,2.1,11.214,6.331,18.219.067.111.134.217.2.326h-11a.713.713,0,0,0-.666.459l-5.811,15.235a.712.712,0,0,0,.666.967h47a.712.712,0,0,0,.666-.967Zm-35.966-34.238a11.8,11.8,0,0,1,23.6,0c.062,10.126-9.406,22.615-11.8,25.61-2.393-2.994-11.86-15.48-11.8-25.614ZM142.336,284a.713.713,0,0,0,1.086,0,75.687,75.687,0,0,0,5.255-7.234h11.4l.912,2.393-22.278,7.924-7.941-10.318h6.31A75.567,75.567,0,0,0,142.336,284Zm-3.649,4.6h0l13.291-4.726,5.155,6.7H133.144ZM125.68,276.761h3.291l8.327,10.82-8.409,2.99h-8.478Zm33.258,13.811-5.543-7.2,8.106-2.883,3.847,10.086Zm0,0" transform="translate(-118.664 -243.57)" fill="#3c3c3b"/>
    </g>
  </g>
</svg>
