<svg id="Grupo_34" data-name="Grupo 34" xmlns="http://www.w3.org/2000/svg" width="21.511" height="21.511" viewBox="0 0 21.511 21.511">
  <path id="Caminho_230" data-name="Caminho 230" d="M1564.005.5h-8.695a6.415,6.415,0,0,0-6.408,6.408V15.6a6.415,6.415,0,0,0,6.408,6.408h8.695a6.416,6.416,0,0,0,6.408-6.408V6.908A6.416,6.416,0,0,0,1564.005.5Zm4.244,15.1a4.244,4.244,0,0,1-4.244,4.244h-8.695a4.244,4.244,0,0,1-4.244-4.244V6.908a4.244,4.244,0,0,1,4.244-4.244h8.695a4.244,4.244,0,0,1,4.244,4.244V15.6Z" transform="translate(-1548.902 -0.5)" fill="#fff"/>
  <path id="Caminho_231" data-name="Caminho 231" d="M1653.309,99.343a5.564,5.564,0,1,0,5.563,5.564A5.57,5.57,0,0,0,1653.309,99.343Zm0,8.963a3.4,3.4,0,1,1,3.4-3.4A3.4,3.4,0,0,1,1653.309,108.306Z" transform="translate(-1642.553 -94.151)" fill="#fff"/>
  <circle id="Elipse_1" data-name="Elipse 1" cx="1.333" cy="1.333" r="1.333" transform="translate(14.997 3.901)" fill="#fff"/>
</svg>
