<svg xmlns="http://www.w3.org/2000/svg" width="21.473" height="21.473" viewBox="0 0 21.473 21.473">
  <path id="Caminho_261" data-name="Caminho 261" d="M486.581,0H470.9A2.894,2.894,0,0,0,468,2.894V18.579a2.894,2.894,0,0,0,2.894,2.894h7.736l.013-7.673h-1.994a.47.47,0,0,1-.47-.469l-.01-2.473a.47.47,0,0,1,.47-.472h1.99V8A3.9,3.9,0,0,1,482.8,3.712h2.03a.47.47,0,0,1,.47.47V6.268a.47.47,0,0,1-.47.47h-1.246c-1.346,0-1.606.639-1.606,1.578v2.069h2.957a.47.47,0,0,1,.467.526l-.293,2.473a.47.47,0,0,1-.467.415h-2.65l-.013,7.673h4.6a2.893,2.893,0,0,0,2.893-2.893V2.894A2.894,2.894,0,0,0,486.581,0Z" transform="translate(-468.002)" fill="#fff"/>
</svg>
