<svg xmlns="http://www.w3.org/2000/svg" width="21.447" height="21.447" viewBox="0 0 21.447 21.447">
  <path id="Caminho_262" data-name="Caminho 262" d="M1028.49.5h-17.567a1.94,1.94,0,0,0-1.94,1.94V20.007a1.94,1.94,0,0,0,1.94,1.94h17.567a1.94,1.94,0,0,0,1.94-1.94V2.44A1.94,1.94,0,0,0,1028.49.5Zm-12.87,18.519a.564.564,0,0,1-.564.565h-2.4a.564.564,0,0,1-.564-.565V8.944a.564.564,0,0,1,.564-.565h2.4a.564.564,0,0,1,.564.565ZM1013.853,7.43a2.283,2.283,0,1,1,2.283-2.283A2.283,2.283,0,0,1,1013.853,7.43Zm14.326,11.634a.519.519,0,0,1-.519.519h-2.579a.519.519,0,0,1-.519-.519V14.339c0-.7.207-3.089-1.842-3.089-1.589,0-1.912,1.632-1.977,2.364v5.45a.519.519,0,0,1-.519.519h-2.494a.519.519,0,0,1-.519-.519V8.9a.519.519,0,0,1,.519-.519h2.494a.519.519,0,0,1,.519.519v.879a3.541,3.541,0,0,1,3.33-1.567c4.129,0,4.106,3.858,4.106,5.978v4.876Z" transform="translate(-1008.983 -0.5)" fill="#fff"/>
</svg>
